# xmcd
#
# Track frame offsets:
#	150
#	4437
#	21765
#	30880
#	36412
#	46657
#	62905
#	75467
#	76760
#	86905
#	88715
#	97877
#	115862
#	126235
#	135475
#	158450
#	171727
#	172422
#	176302
#	204430
#	217545
#
# Disc length: 3779 seconds
#
# Revision: 0
# Processed by: cddbd v1.4PL0 Copyright (c) Steve Scherf et al.
# Submitted via: EasyCDDAExtractor 4.5.2.1
#
DISCID=050ec115
DTITLE=Jon Wayne - Two Graduated Jiggers
DYEAR=2000
DGENRE=Country
TTITLE0=Texas Fuel Injection
TTITLE1=Generator
TTITLE2=Texas Moquine Bird
TTITLE3=I Caught Me a Squirrel
TTITLE4=I Do Drive Truck
TTITLE5=Time to Drink Whiskey
TTITLE6=Texas Drum Cooker
TTITLE7=Texas Learning Center
TTITLE8=Country Porno
TTITLE9=Old MacDonald
TTITLE10=Donkey - Mule
TTITLE11=Mandolin Man
TTITLE12=Death and Texas
TTITLE13=Rock It Billy
TTITLE14=Las Vegas Audition
TTITLE15=Texas Jackin' Ledge
TTITLE16=Jimbo's Clown Room
TTITLE17=Balloon - Indian Girl
TTITLE18=Texas Genealogy
TTITLE19=International Squirrel
TTITLE20=Texas Assonance
EXTD=
EXTT0=
EXTT1=
EXTT2=
EXTT3=
EXTT4=
EXTT5=
EXTT6=
EXTT7=
EXTT8=
EXTT9=
EXTT10=
EXTT11=
EXTT12=
EXTT13=
EXTT14=
EXTT15=
EXTT16=
EXTT17=
EXTT18=
EXTT19=
EXTT20=
PLAYORDER=
